<svg fill="none" xmlns="http://www.w3.org/2000/svg" viewBox="0 0 55 55"><path d="M26.5 47C35.58 47 43 39.65 43 30.66A16.4 16.4 0 0 0 26.5 47ZM14.74 25.65c0 2.55 2.07 4.5 4.54 4.5.93 0 1.86-.31 2.58-.82v.3c0 2.56 2.06 4.5 4.54 4.5a4.49 4.49 0 0 0 4.53-4.5v-.3c.73.5 1.65.82 2.58.82a4.49 4.49 0 0 0 4.54-4.5 4.43 4.43 0 0 0-2.58-4.09 4.43 4.43 0 0 0 2.58-4.08 4.54 4.54 0 0 0-7.12-3.68v-.3c0-2.56-2.06-4.5-4.53-4.5a4.49 4.49 0 0 0-4.54 4.5v.3a4.54 4.54 0 0 0-2.58-.82 4.49 4.49 0 0 0-4.54 4.5 4.43 4.43 0 0 0 2.58 4.08 4.61 4.61 0 0 0-2.58 4.1Zm11.76-8.68a4.49 4.49 0 1 1 0 8.99 4.49 4.49 0 1 1 0-9ZM10 30.66C10 39.65 17.43 47 26.5 47A16.4 16.4 0 0 0 10 30.66Z" fill="#63D1BB"/></svg>