<svg width="62" height="62" viewBox="0 0 62 62" fill="none" xmlns="http://www.w3.org/2000/svg">
<path d="M1 44.9933L28.4 61V37.5436L1 21.4362V44.9933ZM52.3 13.4832V16C52.3 17.8121 48.8 19.3221 44.6 19.3221C40.3 19.3221 36.9 17.8121 36.9 16V11.8725C37.2 13.5839 40.5 14.9933 44.6 14.9933C48.9 14.9933 52.3 13.4832 52.3 11.6711C52.3 9.85907 48.8 8.349 44.6 8.349C44.3 8.349 43.9 8.349 43.6 8.349L38.6 5.42954V8.55034C38.6 10.3624 35.1 11.8725 30.9 11.8725C28.2 11.8725 25.9 11.2685 24.5 10.3624C24.3 10.1611 24.1 9.95973 23.8 9.75839C23.4 9.3557 23.2 8.95302 23.2 8.55034V5.5302L18.4 8.349C18.1 8.349 17.7 8.349 17.3 8.349C13 8.349 9.60001 9.85907 9.60001 11.6711C9.60001 13.4832 13.1 14.9933 17.3 14.9933C21.4 14.9933 24.7 13.5839 25 11.8725V16C25 17.8121 21.5 19.3221 17.3 19.3221C13 19.3221 9.60001 17.8121 9.60001 16V13.5839L3.60001 17.1074L31.1 33.2148L58.5 17.2081L52.3 13.4832ZM38.7 23.7517C38.7 25.5638 35.2 27.0738 31 27.0738C26.7 27.0738 23.3 25.5638 23.3 23.7517V19.6242C23.6 21.3356 26.9 22.745 31 22.745C35.1 22.745 38.4 21.3356 38.7 19.6242V23.7517ZM33.6 37.745V61L61 44.9933V21.7383L33.6 37.745ZM30.9 7.6443C35.2 7.6443 38.6 6.13423 38.6 4.32215C38.6 2.51007 35.1 1 30.9 1C26.6 1 23.2 2.51007 23.2 4.32215C23.2 6.13423 26.6 7.6443 30.9 7.6443Z" fill="#149080"/>
</svg>
