<svg width="55" height="55" viewBox="0 0 55 55" fill="none" xmlns="http://www.w3.org/2000/svg">
<path d="M10.3056 24.9528C9.89815 27.0303 9.89815 29.1079 10.3056 31.1855L14.4815 28.0197L10.3056 24.9528Z" fill="#63D1BB"/>
<path d="M34.852 12.586C29.9631 10.4095 24.2594 10.4095 19.2686 12.9817L26.9075 18.5219L34.852 12.586Z" fill="#63D1BB"/>
<path d="M44.528 24.062L39.6391 27.7225L44.6299 31.3829C45.1392 29.0086 45.1392 26.4364 44.528 24.062Z" fill="#63D1BB"/>
<path d="M19.3705 43.057C24.2594 45.5303 30.2687 45.7282 35.3613 43.156L27.1113 37.1211L19.3705 43.057Z" fill="#63D1BB"/>
<path d="M18.0464 25.2488L11.7315 20.698C11.426 21.3905 11.1204 22.083 10.9167 22.7755L16.3149 26.7328L18.0464 25.2488Z" fill="#63D1BB"/>
<path d="M28.9446 35.8348L37.3983 41.9686C37.7039 41.7707 38.0095 41.5729 38.2132 41.375C38.5187 41.1771 38.8243 40.8803 39.1298 40.5835L30.6761 34.4498L28.9446 35.8348Z" fill="#63D1BB"/>
<path d="M21.6112 22.5781L14.0741 17.1368C13.5649 17.6315 13.1574 18.2251 12.75 18.8187L19.7779 23.9631L21.6112 22.5781Z" fill="#63D1BB"/>
<path d="M32.5094 33.1635L40.7595 39.1983C41.2688 38.7037 41.6762 38.1101 42.0836 37.5165L34.2409 31.7785L32.5094 33.1635Z" fill="#63D1BB"/>
<path d="M25.176 19.9069L17.3334 14.1689C17.1297 14.2678 16.926 14.4657 16.7223 14.5646C16.3149 14.8614 15.9075 15.1582 15.6019 15.5539L23.4446 21.193L25.176 19.9069Z" fill="#63D1BB"/>
<path d="M36.0743 30.3936L43.2039 35.5381C43.5095 34.8455 43.8151 34.2519 44.1206 33.5594L37.9076 29.0086L36.0743 30.3936Z" fill="#63D1BB"/>
<path d="M36.8891 13.6742L10.9167 33.3616C11.1204 34.0541 11.426 34.7466 11.7315 35.4391L38.7225 14.9603C38.2132 14.4657 37.6021 14.07 36.8891 13.6742Z" fill="#63D1BB"/>
<path d="M41.2688 17.5324C40.9632 17.1366 40.6576 16.7409 40.3521 16.4441L12.8519 37.2197C13.0556 37.7143 13.3611 38.1101 13.6667 38.4069C13.7685 38.6047 13.9722 38.8026 14.0741 38.9015L41.778 18.126C41.5743 17.9281 41.4725 17.7302 41.2688 17.5324Z" fill="#63D1BB"/>
<path d="M42.8984 19.9067L15.7037 40.4844C16.213 40.9791 16.8241 41.4737 17.4352 41.8695L43.9169 21.8853C43.6114 21.1928 43.3058 20.5003 42.8984 19.9067Z" fill="#63D1BB"/>
</svg>
