<svg id="logo-footer" viewBox="0 0 102 34" fill="none">
<path d="M19.2204 21.3812C19.1204 18.6961 18.7204 16.1105 18.7204 13.4254C18.7204 11.2376 19.1204 9.04971 18.3204 6.96131C18.3204 6.76241 18.4204 6.46407 18.4204 6.26517C18.6204 5.2707 15.1204 5.76794 14.6204 6.76241C14.3204 7.06076 14.1204 7.3591 14.2204 7.75689C14.2204 7.85634 14.3204 7.95579 14.3204 8.05523C13.6204 11.2376 12.7204 14.3204 11.7204 17.4033C11.3204 18.5967 10.8204 19.6906 10.4204 20.884C9.82041 19.7901 9.22041 18.6961 8.82041 17.5028C7.42041 14.1215 6.22041 10.6409 4.52041 7.3591C4.72041 5.86738 1.32041 5.96683 0.620408 7.3591C-0.179592 9.04971 -0.0795918 10.7403 0.220408 12.5304C0.520408 14.5193 0.620408 16.5083 0.620408 18.5967C0.620408 22.5746 1.02041 26.4531 1.02041 30.431C0.620408 30.8288 0.520408 31.326 0.920408 31.8232C1.12041 32.0221 1.32041 32.221 1.52041 32.3205C2.52041 33.0166 5.12041 32.4199 5.12041 31.0277C5.12041 26.9503 4.82041 22.8729 4.72041 18.6961C4.72041 18.2983 4.72041 17.9006 4.72041 17.5028C4.82041 17.6022 4.82041 17.8011 4.92041 17.9006C5.52041 19.4917 6.22041 21.0829 7.12041 22.5746C8.02041 24.0663 8.42041 25.6575 8.92041 27.2486C8.72041 27.4475 8.62041 27.7459 8.72041 27.9448C8.72041 28.1437 8.82041 28.2431 9.02041 28.3426C9.62041 28.8398 10.8204 28.6409 11.5204 28.3426C11.8204 28.2431 12.1204 28.0442 12.3204 27.9448C12.6204 27.7459 13.2204 27.2486 13.0204 26.7514C13.0204 26.652 12.9204 26.5525 12.9204 26.4531C13.4204 25.1602 13.6204 23.8674 13.9204 22.5746C14.2204 21.1823 14.7204 19.7901 15.2204 18.4972C15.3204 19.0939 15.3204 19.6906 15.4204 20.3868C15.6204 22.9724 15.4204 25.4586 15.4204 27.9448C15.4204 28.7404 15.5204 29.5359 15.6204 30.431C15.7204 30.7293 16.0204 32.221 15.9204 32.3205C15.1204 32.8177 15.3204 33.4144 16.1204 33.6133C17.0204 33.8122 18.2204 33.5139 18.9204 32.9172C20.1204 31.8232 19.5204 30.1326 19.3204 28.7404C18.8204 26.3536 19.3204 23.768 19.2204 21.3812Z" fill="currentColor"/>
<path d="M27.6201 22.0777C27.5201 20.0888 26.8201 18.1993 26.8201 16.2103C26.8201 13.923 27.0201 11.6357 26.6201 9.34842C26.5201 8.65229 22.5201 9.44787 22.7201 10.3429C23.0201 12.4313 22.9201 14.5197 22.9201 16.7076C22.9201 18.6965 23.4201 20.586 23.6201 22.575C23.9201 24.6634 23.5201 26.7518 23.7201 28.7407C23.8201 29.7352 24.5201 31.4258 23.8201 32.3208C23.4201 32.8181 25.3201 32.6192 25.4201 32.6192C26.2201 32.5197 27.2201 32.2214 27.7201 31.6247C28.4201 30.8291 27.9201 29.238 27.8201 28.2435C27.5201 26.2545 27.7201 24.0667 27.6201 22.0777Z" fill="currentColor"/>
<path d="M43.9205 18.7957C41.8205 16.0111 38.0205 18.0001 35.3205 17.3039C33.9205 16.9061 33.9205 15.0166 33.9205 13.9227C33.9205 12.5304 33.8205 11.2376 33.6205 9.84536C33.5205 8.75143 33.6205 7.75696 34.3205 6.96138C34.4205 6.86193 35.2205 6.66303 35.1205 6.66303C35.5205 6.56358 35.8205 6.56358 36.2205 6.56358C37.7205 6.46414 40.8205 6.76248 40.2205 9.04978C39.9205 10.0443 43.8205 9.44757 44.1205 8.45309C45.3205 3.8785 36.8205 4.77353 34.4205 5.37021C32.2205 5.9669 29.8205 7.16027 29.6205 9.74591C29.5205 10.9393 29.9205 12.1327 29.9205 13.326C30.0205 14.7183 29.7205 16.1106 30.2205 17.4034C31.3205 20.3868 35.7205 18.9946 38.0205 19.094C41.8205 19.3923 40.7205 24.5636 40.7205 26.9504C40.7205 28.2432 41.9205 30.3316 40.9205 31.4255C40.3205 32.1216 38.9205 32.1216 38.1205 32.2211C37.3205 32.3205 35.9205 32.5194 35.4205 31.7239C34.4205 30.3316 35.5205 27.9448 35.3205 26.3537C35.2205 25.4587 31.2205 26.2542 31.4205 27.3482C31.7205 29.9338 30.0205 33.4145 33.8205 33.9117C36.2205 34.21 39.0205 33.7128 41.3205 33.0167C42.5205 32.6189 43.6205 32.1216 44.5205 31.2266C45.5205 30.3316 45.2205 28.9393 44.9205 27.7459C44.4205 24.6631 45.8205 21.2818 43.9205 18.7957Z" fill="currentColor"/>
<path d="M61.3201 18.5966C61.2201 14.8176 60.6201 11.138 60.6201 7.35897C60.6201 5.37002 56.6201 6.06615 56.6201 7.65732C56.6201 11.2374 57.1201 14.8176 57.3201 18.3977C57.3201 18.4971 57.3201 18.4971 57.3201 18.5966C55.4201 18.5966 53.4201 18.7955 51.4201 18.7955C51.6201 14.2209 50.8201 9.64627 51.0201 4.97223C51.0201 4.37554 47.1201 4.87278 47.1201 5.96671C46.9201 10.4419 47.7201 14.8176 47.6201 19.2927C47.5201 21.3811 47.4201 23.569 47.3201 25.6574C47.3201 26.7513 47.5201 27.8452 47.6201 28.9391C47.7201 29.9336 48.1201 31.2264 47.8201 32.2209C47.6201 33.0165 51.4201 32.5192 51.7201 31.5248C52.2201 29.7347 51.5201 27.5469 51.3201 25.7568C51.1201 24.0662 51.3201 22.2761 51.4201 20.5855C53.4201 20.4861 55.5201 20.2872 57.5201 20.5855C57.6201 21.9778 57.7201 23.3701 57.8201 24.6629C57.9201 25.8563 58.0201 26.9502 58.0201 28.1435C58.0201 29.138 58.1201 30.6297 57.8201 31.6242C57.0201 33.7126 60.9201 33.5137 61.5201 32.022C62.2201 30.1325 62.0201 27.8452 61.9201 25.8563C61.7201 23.3701 61.3201 20.9833 61.3201 18.5966Z" fill="currentColor"/>
<path d="M78.22 22.9728C77.32 20.1883 75.82 17.8015 74.62 15.2159C75.62 13.3264 76.62 11.3374 77.52 9.34849C78.32 7.55843 78.92 5.56948 80.62 4.27666C81.22 3.87887 81.22 3.38163 80.32 3.28218C79.42 3.18274 78.22 3.48108 77.52 3.97832C76.12 5.27114 75.12 6.66341 74.42 8.35402C73.52 10.4424 72.52 12.4314 71.52 14.4203C71.42 14.5198 71.42 14.7187 71.32 14.8181C70.82 15.1165 70.52 15.6137 70.72 16.1109C69.92 17.7021 69.12 19.1938 68.22 20.6855C67.92 15.2159 67.22 9.64684 67.02 4.17721C67.02 2.88439 63.02 3.67997 63.12 5.17169C63.32 12.0336 64.32 18.796 64.42 25.6579C64.42 25.6579 64.42 25.6579 64.42 25.7574C64.12 26.0557 64.22 26.2546 64.52 26.3541C64.52 28.1441 64.42 29.8347 64.32 31.6248C63.82 32.3209 64.82 32.7187 65.42 32.7187H65.52C66.22 32.7187 68.12 32.4204 68.22 31.3264C68.42 29.238 68.52 27.1496 68.42 25.0612C70.02 23.3706 71.32 21.4811 72.52 19.4922C73.32 20.9839 74.02 22.4756 74.52 24.0668C75.42 26.7518 76.82 29.3375 77.62 32.0226C78.12 33.8126 82.12 32.7187 81.52 31.0281C80.52 28.2436 79.12 25.7574 78.22 22.9728Z" fill="currentColor"/>
<path d="M101.721 18.3982C101.521 17.6026 100.321 17.6026 99.4207 17.6026C99.4207 17.3043 99.4207 16.9065 99.4207 16.6082C99.3207 13.9231 99.2207 11.238 99.0207 8.65234C98.8207 6.16615 97.4207 5.37056 95.0207 5.47001C92.6207 5.56946 89.8207 5.96725 87.5207 6.86228C84.9207 7.85676 83.4207 9.74626 82.9207 12.5308C82.4207 15.5142 83.1207 18.6966 83.3207 21.68C83.5207 25.1607 83.4207 28.6413 83.4207 32.122C83.4207 32.7187 87.3207 32.122 87.3207 31.1275C87.3207 28.343 87.3207 25.5585 87.3207 22.8734C87.3207 22.0778 87.2207 21.2822 87.2207 20.4866C88.6207 19.8899 90.9207 20.4866 92.3207 20.5861C93.4207 20.6855 94.5207 20.3872 95.5207 20.2877C95.5207 22.575 95.6207 24.8623 95.7207 27.1496C95.7207 28.343 96.2207 30.6303 95.3207 31.6248C94.9207 32.122 96.8207 31.9231 96.9207 31.9231C97.7207 31.8237 98.7207 31.5253 99.2207 30.9286C100.121 29.8347 99.7207 27.1496 99.6207 25.8568C99.5207 23.9673 99.5207 22.0778 99.5207 20.1883C100.621 19.9894 101.921 19.2932 101.721 18.3982ZM87.1207 18.2988C87.0207 17.1054 86.9207 15.8126 86.8207 14.6192C86.6207 12.3319 86.9207 9.05013 89.1207 7.65786C89.7207 7.26007 90.8207 7.35952 91.5207 7.26007C92.5207 7.06117 93.5207 6.86228 94.3207 7.45897C95.5207 8.25455 95.2207 11.1385 95.2207 12.3319C95.2207 14.3209 95.4207 16.3098 95.5207 18.2988C94.9207 18.3982 94.4207 18.3982 93.8207 18.3982C91.5207 18.1993 89.2207 17.8015 87.1207 18.2988Z" fill="currentColor"/>
<path d="M24.2204 6.663C24.7204 6.56355 25.2204 6.4641 25.7204 6.16576C25.8204 6.06631 25.9204 5.96686 25.9204 5.96686C26.4204 5.66852 26.9204 5.17128 26.6204 4.57459C26.1204 3.48067 26.2204 2.38675 26.2204 1.19337C26.2204 0.198895 25.2204 0 24.4204 0C23.7204 0.0994477 22.2204 0.596686 22.2204 1.49172C22.2204 2.48619 22.1204 3.48067 22.3204 4.47515C22.3204 4.57459 22.2204 4.67404 22.2204 4.87294C22.1204 5.07183 22.2204 5.27073 22.3204 5.46962V5.56907C22.3204 5.66852 22.3204 5.76797 22.3204 5.86742C22.4204 6.06631 22.5204 6.26521 22.7204 6.36465C23.3204 6.663 23.8204 6.663 24.2204 6.663Z" fill="currentColor"/>
</svg>
