<svg xmlns="http://www.w3.org/2000/svg"><style>:root svg:not(:target){display:none}</style><svg fill="none" viewBox="0 0 32 22" id="camera"><path d="m26 10 6-4v16l-6-4v-8Zm-2 0v8c0 2.2-1.8 4-4 4H4c-2.2 0-4-1.8-4-4v-8c0-2.2 1.8-4 4-4h10c0-1.1.9-2 2-2V2H5c-.6 0-1-.4-1-1s.4-1 1-1h12c.6 0 1 .4 1 1v3a2 2 0 0 1 2 2c2.2 0 4 1.8 4 4Zm-12 0H4v8h8v-8Zm8 1c0-.6-.4-1-1-1h-4c-.6 0-1 .4-1 1s.4 1 1 1h4c.6 0 1-.4 1-1Z" fill="#63D1BB"></path></svg><svg fill="none" viewBox="0 0 21 21" id="cart"><path d="M20.19 8.86h-3.55l-3.45-6.48c-.2-.38-.61-.48-1.02-.28-.4.19-.5.57-.3.95l3.14 5.8H5.78l3.15-5.8c.2-.38 0-.76-.3-.95a.82.82 0 0 0-1.02.28L4.16 8.86H.8c-.4 0-.81.28-.81.76 0 .38.3.76.81.76H1l.92 2.86c-.2.1-.3.28-.3.57 0 .38.3.67.7.67L4.06 20h12.88l1.73-5.52c.4 0 .7-.29.7-.67 0-.2-.1-.48-.3-.57l.92-2.86h.2c.4 0 .81-.28.81-.76s-.4-.76-.81-.76Zm-4.57 9.62H5.07l-1.21-4.1h13.08l-1.32 4.1Zm1.63-5.53H3.35l-.81-2.66h15.52l-.81 2.66Z" fill="currentColor"></path></svg><svg fill="none" viewBox="0 0 32 32" id="email"><path d="M28 5H4C1.8 5 0 6.8 0 9v13c0 2.2 1.8 4 4 4h24c2.2 0 4-1.8 4-4V9c0-2.2-1.8-4-4-4ZM2 10.3l7 5.3-7 5.3V10.3ZM30 22a2 2 0 0 1-2 2H4a2 2 0 0 1-2-2l7.8-5.9 4.4 3.3a3 3 0 0 0 3.6 0l4.4-3.3L30 22Zm0-1.2-7-5.3 7-5.3v10.6Zm-12.8-2.2c-.4.3-.8.4-1.2.4-.4 0-.9-.1-1.2-.4l-4.1-3.1-.8-.6L2 9c0-1.1.9-2 2-2h24a2 2 0 0 1 2 2l-12.8 9.6Z" fill="currentColor"></path></svg><svg fill="none" viewBox="0 0 47 81" id="flag"><path d="M7.77 3.86v38.52L47 23.08 7.77 3.85ZM0 80.9V0h3.83v80.9H0Z" fill="#63D1BB"></path><path d="M3.83.1H0V81h3.83V.1Z" fill="#231F20"></path></svg><svg fill="none" viewBox="0 0 55 55" id="flower"><path d="M26.5 47C35.58 47 43 39.65 43 30.66A16.4 16.4 0 0 0 26.5 47ZM14.74 25.65c0 2.55 2.07 4.5 4.54 4.5.93 0 1.86-.31 2.58-.82v.3c0 2.56 2.06 4.5 4.54 4.5a4.49 4.49 0 0 0 4.53-4.5v-.3c.73.5 1.65.82 2.58.82a4.49 4.49 0 0 0 4.54-4.5 4.43 4.43 0 0 0-2.58-4.09 4.43 4.43 0 0 0 2.58-4.08 4.54 4.54 0 0 0-7.12-3.68v-.3c0-2.56-2.06-4.5-4.53-4.5a4.49 4.49 0 0 0-4.54 4.5v.3a4.54 4.54 0 0 0-2.58-.82 4.49 4.49 0 0 0-4.54 4.5 4.43 4.43 0 0 0 2.58 4.08 4.61 4.61 0 0 0-2.58 4.1Zm11.76-8.68a4.49 4.49 0 1 1 0 8.99 4.49 4.49 0 1 1 0-9ZM10 30.66C10 39.65 17.43 47 26.5 47A16.4 16.4 0 0 0 10 30.66Z" fill="#63D1BB"></path></svg><svg fill="none" viewBox="0 0 1050 23" id="gray-stripe-desktop"><path d="M1050 23c-8.22 0-12.51-4.6-15.98-8.3-3.1-3.3-5.39-5.7-10.22-5.7-4.93 0-7.13 2.4-10.23 5.7-3.47 3.7-7.76 8.3-15.98 8.3s-12.5-4.6-15.98-8.3c-3.1-3.3-5.38-5.7-10.22-5.7-4.84 0-7.13 2.4-10.23 5.7-3.47 3.7-7.76 8.3-15.98 8.3-8.21 0-12.5-4.6-15.98-8.3-3.1-3.3-5.38-5.7-10.22-5.7-4.93 0-7.12 2.4-10.23 5.7-3.47 3.7-7.76 8.3-15.98 8.3-8.21 0-12.5-4.6-15.97-8.3-3.1-3.3-5.4-5.7-10.23-5.7-4.93 0-7.12 2.4-10.23 5.7-3.83 3.7-8.12 8.3-16.34 8.3s-12.5-4.6-15.98-8.3c-3.1-3.3-5.38-5.7-10.22-5.7-4.93 0-7.13 2.4-10.23 5.7-3.47 3.7-7.76 8.3-15.98 8.3s-12.5-4.6-15.98-8.3c-3.1-3.3-5.38-5.7-10.22-5.7-4.93 0-7.13 2.4-10.23 5.7-3.65 3.7-7.94 8.3-16.16 8.3-8.22 0-12.5-4.6-15.98-8.3-3.1-3.3-5.38-5.7-10.22-5.7-4.93 0-7.13 2.4-10.23 5.7-3.47 3.7-7.76 8.3-15.98 8.3s-12.5-4.6-15.98-8.3c-3.1-3.3-5.38-5.7-10.22-5.7-4.84 0-7.13 2.4-10.23 5.7-3.56 3.7-7.94 8.3-16.16 8.3-8.22 0-12.5-4.6-15.98-8.3-3.1-3.3-5.38-5.7-10.22-5.7-4.93 0-7.13 2.4-10.23 5.7-3.47 3.7-7.76 8.3-15.98 8.3s-12.5-4.6-15.98-8.3c-3.1-3.3-5.38-5.7-10.22-5.7-4.93 0-7.13 2.4-10.23 5.7-3.47 3.7-7.76 8.3-15.98 8.3-8.21 0-12.5-4.6-15.98-8.3-3.1-3.3-5.38-5.7-10.22-5.7-4.84 0-7.12 2.4-10.23 5.7-3.47 3.7-7.76 8.3-15.98 8.3-8.21 0-12.5-4.6-15.97-8.3-3.1-3.3-5.4-5.7-10.23-5.7-4.93 0-7.12 2.4-10.23 5.7-3.47 3.7-7.76 8.3-15.97 8.3-8.22 0-12.51-4.6-15.98-8.3-3.1-3.3-5.39-5.7-10.23-5.7-4.93 0-7.12 2.4-10.23 5.7-3.47 3.7-7.76 8.3-15.97 8.3-8.22 0-12.51-4.6-15.98-8.3-3.1-3.3-5.39-5.7-10.23-5.7-4.93 0-7.12 2.4-10.22 5.7-3.47 3.7-7.76 8.3-15.98 8.3s-12.51-4.6-15.98-8.3c-3.1-3.3-5.39-5.7-10.23-5.7-4.84 0-7.12 2.4-10.22 5.7-3.47 3.7-7.76 8.3-15.98 8.3s-12.51-4.6-15.98-8.3c-3.1-3.3-5.39-5.7-10.22-5.7-4.94 0-7.13 2.4-10.23 5.7-3.47 3.7-7.76 8.3-15.98 8.3s-12.5-4.6-15.98-8.3c-3.1-3.3-5.38-5.7-10.22-5.7-4.93 0-7.13 2.4-10.23 5.7-3.47 3.7-7.76 8.3-15.98 8.3s-12.5-4.6-15.98-8.3c-3.1-3.3-5.38-5.7-10.22-5.7-4.93 0-7.12 2.4-10.23 5.7-4.29 3.7-8.67 8.3-16.89 8.3s-12.5-4.6-15.98-8.3C85.92 11.4 83.63 9 78.8 9c-4.93 0-7.13 2.4-10.23 5.7-3.47 3.7-7.76 8.3-15.98 8.3s-12.5-4.6-15.98-8.3C33.41 11.4 31.13 9 26.3 9c-4.93 0-7.13 2.4-10.23 5.7C12.51 18.4 8.22 23 0 23v-9c4.93 0 7.12-2.4 10.23-5.7C13.7 4.6 17.99 0 26.3 0c8.21 0 12.5 4.6 15.97 8.3 3.1 3.3 5.4 5.7 10.23 5.7 4.93 0 7.12-2.4 10.23-5.7C66.2 4.6 70.58 0 78.8 0 87 0 91.3 4.6 94.77 8.3c3.1 3.3 5.4 5.7 10.23 5.7 4.93 0 7.12-2.4 10.23-5.7C118.7 4.6 122.99 0 131.2 0c8.22 0 12.51 4.6 15.98 8.3 3.1 3.3 5.39 5.7 10.23 5.7 4.93 0 7.12-2.4 10.22-5.7C171.1 4.6 175.4 0 183.61 0c8.22 0 12.51 4.6 15.98 8.3 3.1 3.3 5.39 5.7 10.23 5.7 4.93 0 7.12-2.4 10.22-5.7 3.47-3.7 7.76-8.3 15.98-8.3S248.53 4.6 252 8.3c3.1 3.3 5.39 5.7 10.23 5.7 4.93 0 7.12-2.4 10.22-5.7 3.47-3.7 7.76-8.3 15.98-8.3s12.5 4.6 15.98 8.3c3.1 3.3 5.39 5.7 10.22 5.7 4.94 0 7.13-2.4 10.23-5.7 3.47-3.7 7.76-8.3 15.98-8.3s12.5 4.6 15.98 8.3c3.1 3.3 5.38 5.7 10.22 5.7 4.84 0 7.13-2.4 10.23-5.7 3.47-3.7 7.76-8.3 15.98-8.3 8.21 0 12.5 4.6 15.98 8.3 3.1 3.3 5.38 5.7 10.22 5.7 4.93 0 7.12-2.4 10.23-5.7 3.47-3.7 7.76-8.3 15.98-8.3 8.21 0 12.5 4.6 15.97 8.3 3.1 3.3 5.4 5.7 10.23 5.7 4.93 0 7.12-2.4 10.23-5.7 3.47-3.7 7.76-8.3 15.98-8.3 8.21 0 12.5 4.6 15.97 8.3 3.1 3.3 5.39 5.7 10.23 5.7 4.93 0 7.12-2.4 10.23-5.7 3.47-3.7 7.76-8.3 15.97-8.3 8.22 0 12.51 4.6 15.98 8.3 3.1 3.3 5.39 5.7 10.23 5.7 4.93 0 7.12-2.4 10.22-5.7 3.47-3.7 7.76-8.3 15.98-8.3s12.51 4.6 15.98 8.3c3.1 3.3 5.39 5.7 10.23 5.7 4.93 0 7.12-2.4 10.22-5.7 3.47-3.7 7.76-8.3 15.98-8.3s12.51 4.6 15.98 8.3c3.1 3.3 5.39 5.7 10.23 5.7 4.93 0 7.12-2.4 10.22-5.7C695.2 4.6 699.48 0 707.7 0s12.5 4.6 15.98 8.3c3.1 3.3 5.39 5.7 10.22 5.7 4.94 0 7.13-2.4 10.23-5.7C748.7 4.6 752.99 0 761.3 0c8.21 0 12.5 4.6 15.97 8.3 3.1 3.3 5.4 5.7 10.23 5.7 4.84 0 7.12-2.4 10.23-5.7C801.2 4.6 805.49 0 813.7 0c8.22 0 12.51 4.6 15.98 8.3 3.1 3.3 5.39 5.7 10.23 5.7 4.84 0 7.12-2.4 10.23-5.7C853.7 4.6 857.99 0 866.3 0c8.3 0 12.5 4.6 15.97 8.3 3.1 3.3 5.4 5.7 10.23 5.7 4.84 0 7.12-2.4 10.23-5.7C906.2 4.6 910.49 0 918.7 0c8.22 0 12.51 4.6 15.98 8.3 3.1 3.3 5.39 5.7 10.23 5.7 4.93 0 7.12-2.4 10.23-5.7C958.6 4.6 962.9 0 971.1 0c8.22 0 12.51 4.6 15.98 8.3 3.1 3.3 5.39 5.7 10.23 5.7 4.84 0 7.12-2.4 10.22-5.7 3.47-3.7 7.76-8.3 15.98-8.3s12.51 4.6 15.98 8.3c3.1 3.3 5.39 5.7 10.23 5.7v9h.27Z" fill="#F1F1F1"></path></svg><svg fill="none" viewBox="0 0 320 6" id="gray-stripe-mobile"><path d="M320 6c-2.5 0-3.81-1.2-4.87-2.17-.95-.86-1.64-1.48-3.12-1.48-1.5 0-2.17.62-3.11 1.48-1.06.97-2.37 2.17-4.87 2.17s-3.81-1.2-4.87-2.17c-.95-.86-1.64-1.48-3.12-1.48-1.47 0-2.17.62-3.12 1.48-1.05.97-2.36 2.17-4.86 2.17-2.5 0-3.82-1.2-4.87-2.17-.95-.86-1.65-1.48-3.12-1.48-1.5 0-2.17.62-3.12 1.48C275.9 4.8 274.6 6 272.08 6c-2.5 0-3.8-1.2-4.87-2.17-.94-.86-1.64-1.48-3.11-1.48-1.5 0-2.17.62-3.12 1.48C259.81 4.8 258.5 6 256 6c-2.5 0-3.81-1.2-4.87-2.17-.95-.86-1.64-1.48-3.12-1.48-1.5 0-2.17.62-3.11 1.48-1.06.97-2.37 2.17-4.87 2.17s-3.81-1.2-4.87-2.17c-.95-.86-1.64-1.48-3.12-1.48-1.5 0-2.17.62-3.11 1.48C227.8 4.8 226.5 6 224 6c-2.5 0-3.81-1.2-4.87-2.17-.95-.86-1.64-1.48-3.12-1.48-1.5 0-2.17.62-3.11 1.48-1.06.97-2.37 2.17-4.87 2.17s-3.81-1.2-4.87-2.17c-.95-.86-1.64-1.48-3.12-1.48-1.47 0-2.17.62-3.11 1.48C195.84 4.8 194.5 6 192 6c-2.5 0-3.81-1.2-4.87-2.17-.95-.86-1.64-1.48-3.12-1.48-1.5 0-2.17.62-3.11 1.48-1.06.97-2.37 2.17-4.87 2.17s-3.81-1.2-4.87-2.17c-.95-.86-1.64-1.48-3.12-1.48-1.5 0-2.17.62-3.11 1.48-1.06.97-2.37 2.17-4.87 2.17s-3.82-1.2-4.87-2.17c-.95-.86-1.65-1.48-3.12-1.48-1.47 0-2.17.62-3.12 1.48C147.9 4.8 146.6 6 144.08 6c-2.5 0-3.8-1.2-4.87-2.17-.94-.86-1.64-1.48-3.11-1.48-1.5 0-2.17.62-3.12 1.48-1.06.97-2.36 2.17-4.87 2.17-2.5 0-3.81-1.2-4.87-2.17-.94-.86-1.64-1.48-3.11-1.48-1.5 0-2.17.62-3.12 1.48-1.06.97-2.37 2.17-4.87 2.17s-3.81-1.2-4.87-2.17c-.95-.86-1.64-1.48-3.12-1.48-1.5 0-2.17.62-3.11 1.48C99.98 4.8 98.67 6 96.17 6s-3.82-1.2-4.87-2.17c-.95-.86-1.64-1.48-3.12-1.48-1.47 0-2.17.62-3.12 1.48C84.01 4.8 82.7 6 80.2 6c-2.5 0-3.8-1.2-4.86-2.17-.95-.86-1.65-1.48-3.12-1.48-1.5 0-2.17.62-3.12 1.48C68.03 4.8 66.73 6 64.22 6c-2.5 0-3.81-1.2-4.87-2.17-.94-.86-1.64-1.48-3.11-1.48-1.5 0-2.17.62-3.12 1.48C52.06 4.8 50.75 6 48.25 6s-3.81-1.2-4.87-2.17c-.95-.86-1.64-1.48-3.12-1.48-1.5 0-2.17.62-3.11 1.48C35.84 4.8 34.5 6 32 6c-2.5 0-3.81-1.2-4.87-2.17-.95-.86-1.64-1.48-3.12-1.48-1.5 0-2.17.62-3.11 1.48C19.84 4.8 18.53 6 16.03 6s-3.81-1.2-4.87-2.17C10.18 2.97 9.49 2.35 8 2.35c-1.5 0-2.17.62-3.11 1.48C3.8 4.8 2.5 6 0 6V3.65c1.5 0 2.17-.62 3.12-1.48C4.17 1.2 5.48 0 8.02 0c2.5 0 3.8 1.2 4.86 2.17.95.86 1.65 1.48 3.12 1.48 1.5 0 2.17-.62 3.12-1.48C20.17 1.2 21.5 0 24.02 0c2.5 0 3.8 1.2 4.86 2.17.95.86 1.65 1.48 3.12 1.48 1.5 0 2.17-.62 3.12-1.48C36.17 1.2 37.48 0 39.99 0c2.5 0 3.8 1.2 4.87 2.17.94.86 1.64 1.48 3.11 1.48 1.5 0 2.17-.62 3.12-1.48C52.15 1.2 53.45 0 55.96 0c2.5 0 3.81 1.2 4.87 2.17.94.86 1.64 1.48 3.11 1.48 1.5 0 2.17-.62 3.12-1.48C68.12 1.2 69.43 0 71.93 0s3.81 1.2 4.87 2.17c.95.86 1.64 1.48 3.12 1.48 1.5 0 2.17-.62 3.11-1.48C84.1 1.2 85.4 0 87.9 0s3.81 1.2 4.87 2.17c.95.86 1.64 1.48 3.12 1.48 1.5 0 2.17-.62 3.12-1.48 1.05-.97 2.36-2.17 4.86-2.17 2.5 0 3.82 1.2 4.87 2.17.95.86 1.65 1.48 3.12 1.48 1.48 0 2.17-.62 3.12-1.48 1.05-.97 2.36-2.17 4.87-2.17 2.5 0 3.8 1.2 4.87 2.17.94.86 1.64 1.48 3.11 1.48 1.5 0 2.17-.62 3.12-1.48 1.06-.97 2.37-2.17 4.87-2.17s3.81 1.2 4.87 2.17c.94.86 1.64 1.48 3.12 1.48 1.5 0 2.17-.62 3.11-1.48C147.98 1.2 149.3 0 151.8 0s3.81 1.2 4.87 2.17c.95.86 1.64 1.48 3.12 1.48 1.5 0 2.17-.62 3.11-1.48 1.06-.97 2.37-2.17 4.87-2.17s3.82 1.2 4.87 2.17c.95.86 1.65 1.48 3.12 1.48 1.5 0 2.17-.62 3.12-1.48 1.05-.97 2.36-2.17 4.87-2.17 2.5 0 3.8 1.2 4.86 2.17.95.86 1.65 1.48 3.12 1.48 1.5 0 2.17-.62 3.12-1.48C195.9 1.2 197.2 0 199.7 0c2.5 0 3.81 1.2 4.87 2.17.94.86 1.64 1.48 3.11 1.48 1.5 0 2.17-.62 3.12-1.48 1.06-.97 2.37-2.17 4.87-2.17s3.81 1.2 4.87 2.17c.95.86 1.64 1.48 3.12 1.48 1.5 0 2.17-.62 3.11-1.48C228.17 1.2 229.47 0 232 0c2.5 0 3.82 1.2 4.87 2.17.95.86 1.65 1.48 3.12 1.48 1.47 0 2.17-.62 3.12-1.48 1.05-.97 2.36-2.17 4.87-2.17 2.5 0 3.8 1.2 4.87 2.17.94.86 1.64 1.48 3.11 1.48 1.48 0 2.17-.62 3.12-1.48C260.17 1.2 261.49 0 264 0c2.54 0 3.82 1.2 4.87 2.17.95.86 1.64 1.48 3.12 1.48 1.48 0 2.17-.62 3.12-1.48 1.05-.97 2.36-2.17 4.87-2.17 2.5 0 3.8 1.2 4.87 2.17.94.86 1.64 1.48 3.11 1.48 1.5 0 2.17-.62 3.12-1.48 1.06-.97 2.36-2.17 4.87-2.17 2.5 0 3.81 1.2 4.87 2.17.94.86 1.64 1.48 3.11 1.48 1.48 0 2.18-.62 3.12-1.48 1.06-.97 2.37-2.17 4.87-2.17s3.81 1.2 4.87 2.17c.95.86 1.64 1.48 3.12 1.48V6h.08Z" fill="#F1F1F1"></path></svg><svg fill="none" viewBox="0 0 768 17" id="gray-stripe-table"><path d="M770 17c-6.04 0-9.2-3.4-11.75-6.13-2.28-2.44-3.96-4.22-7.52-4.22-3.62 0-5.23 1.78-7.51 4.22-2.56 2.73-5.71 6.13-11.75 6.13-6.05 0-9.2-3.4-11.75-6.13-2.28-2.44-3.96-4.22-7.52-4.22-3.56 0-5.24 1.78-7.52 4.22-2.55 2.73-5.7 6.13-11.75 6.13-6.04 0-9.2-3.4-11.74-6.13-2.29-2.44-3.96-4.22-7.52-4.22-3.63 0-5.24 1.78-7.52 4.22-2.55 2.73-5.7 6.13-11.75 6.13-6.04 0-9.2-3.4-11.75-6.13-2.28-2.44-3.96-4.22-7.51-4.22-3.63 0-5.24 1.78-7.52 4.22C624.8 13.6 621.64 17 615.6 17c-6.04 0-9.2-3.4-11.75-6.13-2.28-2.44-3.96-4.22-7.52-4.22-3.62 0-5.23 1.78-7.51 4.22-2.56 2.73-5.71 6.13-11.75 6.13-6.05 0-9.2-3.4-11.75-6.13-2.28-2.44-3.96-4.22-7.52-4.22-3.62 0-5.23 1.78-7.52 4.22C547.6 13.6 544.44 17 538.4 17c-6.04 0-9.2-3.4-11.75-6.13-2.28-2.44-3.96-4.22-7.52-4.22-3.62 0-5.23 1.78-7.51 4.22-2.56 2.73-5.71 6.13-11.75 6.13-6.05 0-9.2-3.4-11.75-6.13-2.28-2.44-3.96-4.22-7.52-4.22-3.56 0-5.24 1.78-7.52 4.22-2.62 2.73-5.84 6.13-11.88 6.13-6.04 0-9.2-3.4-11.75-6.13-2.28-2.44-3.96-4.22-7.52-4.22-3.62 0-5.23 1.78-7.51 4.22-2.56 2.73-5.71 6.13-11.75 6.13-6.05 0-9.2-3.4-11.75-6.13-2.28-2.44-3.96-4.22-7.52-4.22-3.62 0-5.23 1.78-7.52 4.22-2.55 2.73-5.7 6.13-11.75 6.13-6.04 0-9.2-3.4-11.74-6.13-2.29-2.44-3.96-4.22-7.52-4.22-3.56 0-5.24 1.78-7.52 4.22-2.55 2.73-5.7 6.13-11.75 6.13-6.04 0-9.2-3.4-11.75-6.13-2.28-2.44-3.96-4.22-7.52-4.22-3.62 0-5.23 1.78-7.51 4.22-2.56 2.73-5.71 6.13-11.75 6.13s-9.2-3.4-11.75-6.13c-2.28-2.44-3.96-4.22-7.52-4.22-3.62 0-5.23 1.78-7.52 4.22-2.55 2.73-5.7 6.13-11.74 6.13-6.05 0-9.2-3.4-11.75-6.13-2.29-2.44-3.96-4.22-7.52-4.22-3.63 0-5.24 1.78-7.52 4.22C239.2 13.6 236.05 17 230 17c-6.04 0-9.2-3.4-11.75-6.13-2.28-2.44-3.96-4.22-7.51-4.22-3.56 0-5.24 1.78-7.52 4.22-2.55 2.73-5.7 6.13-11.75 6.13-6.04 0-9.2-3.4-11.75-6.13-2.28-2.44-3.96-4.22-7.52-4.22-3.62 0-5.23 1.78-7.51 4.22-2.56 2.73-5.71 6.13-11.75 6.13s-9.2-3.4-11.75-6.13c-2.28-2.44-3.96-4.22-7.52-4.22-3.62 0-5.24 1.78-7.52 4.22-2.55 2.73-5.7 6.13-11.75 6.13-6.04 0-9.2-3.4-11.74-6.13-2.29-2.44-3.96-4.22-7.52-4.22-3.63 0-5.24 1.78-7.52 4.22C84.46 13.6 81.24 17 75.2 17s-9.2-3.4-11.75-6.13c-2.28-2.44-3.96-4.22-7.52-4.22-3.62 0-5.23 1.78-7.52 4.22C45.87 13.6 42.71 17 36.67 17s-9.2-3.4-11.75-6.13c-2.35-2.44-4.03-4.22-7.59-4.22-3.62 0-5.23 1.78-7.52 4.22C7.2 13.6 4.04 17-2 17v-6.65c3.63 0 5.24-1.78 7.52-4.22C8.07 3.4 11.22 0 17.33 0c6.05 0 9.2 3.4 11.75 6.13 2.28 2.44 3.96 4.22 7.52 4.22 3.63 0 5.24-1.78 7.52-4.22C46.67 3.4 49.89 0 55.93 0c6.05 0 9.2 3.4 11.75 6.13 2.28 2.44 3.96 4.22 7.52 4.22 3.63 0 5.24-1.78 7.52-4.22C85.27 3.4 88.42 0 94.47 0c6.04 0 9.2 3.4 11.74 6.13 2.29 2.44 3.97 4.22 7.52 4.22 3.63 0 5.24-1.78 7.52-4.22C123.8 3.4 126.95 0 133 0c6.04 0 9.2 3.4 11.75 6.13 2.28 2.44 3.96 4.22 7.52 4.22 3.62 0 5.23-1.78 7.51-4.22C162.34 3.4 165.5 0 171.53 0s9.2 3.4 11.75 6.13c2.28 2.44 3.96 4.22 7.52 4.22 3.62 0 5.23-1.78 7.52-4.22C200.87 3.4 204.02 0 210.07 0c6.04 0 9.2 3.4 11.74 6.13 2.28 2.44 3.96 4.22 7.52 4.22 3.63 0 5.24-1.78 7.52-4.22C239.4 3.4 242.55 0 248.6 0c6.04 0 9.2 3.4 11.75 6.13 2.28 2.44 3.96 4.22 7.51 4.22 3.56 0 5.24-1.78 7.52-4.22C277.93 3.4 281.08 0 287.13 0c6.04 0 9.2 3.4 11.75 6.13 2.28 2.44 3.96 4.22 7.52 4.22 3.62 0 5.23-1.78 7.52-4.22C316.47 3.4 319.62 0 325.66 0s9.2 3.4 11.75 6.13c2.28 2.44 3.96 4.22 7.52 4.22 3.63 0 5.24-1.78 7.52-4.22C355 3.4 358.15 0 364.2 0c6.04 0 9.2 3.4 11.74 6.13 2.29 2.44 3.96 4.22 7.52 4.22 3.63 0 5.24-1.78 7.52-4.22C393.53 3.4 396.68 0 402.73 0c6.04 0 9.2 3.4 11.75 6.13 2.28 2.44 3.96 4.22 7.52 4.22 3.62 0 5.23-1.78 7.51-4.22C432.07 3.4 435.22 0 441.26 0s9.2 3.4 11.75 6.13c2.28 2.44 3.96 4.22 7.52 4.22 3.62 0 5.24-1.78 7.52-4.22C470.6 3.4 473.75 0 479.8 0c6.04 0 9.2 3.4 11.74 6.13 2.28 2.44 3.96 4.22 7.52 4.22 3.63 0 5.24-1.78 7.52-4.22C509.13 3.4 512.28 0 518.33 0c6.04 0 9.2 3.4 11.75 6.13 2.28 2.44 3.96 4.22 7.51 4.22 3.63 0 5.24-1.78 7.52-4.22C548.47 3.4 551.62 0 557.73 0c6.04 0 9.2 3.4 11.75 6.13 2.28 2.44 3.96 4.22 7.52 4.22 3.56 0 5.24-1.78 7.52-4.22C587.07 3.4 590.22 0 596.27 0c6.04 0 9.2 3.4 11.74 6.13 2.29 2.44 3.97 4.22 7.52 4.22 3.56 0 5.24-1.78 7.52-4.22C625.67 3.4 628.83 0 634.93 0c6.11 0 9.2 3.4 11.75 6.13 2.28 2.44 3.96 4.22 7.52 4.22 3.56 0 5.24-1.78 7.52-4.22C664.27 3.4 667.42 0 673.47 0c6.04 0 9.2 3.4 11.74 6.13 2.29 2.44 3.96 4.22 7.52 4.22 3.63 0 5.24-1.78 7.52-4.22C702.8 3.4 705.95 0 712 0c6.04 0 9.2 3.4 11.75 6.13 2.28 2.44 3.96 4.22 7.52 4.22 3.55 0 5.23-1.78 7.51-4.22C741.34 3.4 744.5 0 750.53 0s9.2 3.4 11.75 6.13c2.28 2.44 3.96 4.22 7.52 4.22V17h.2Z" fill="#F1F1F1"></path></svg><svg fill="none" viewBox="0 0 55 55" id="heart"><path d="M45 22.45c0-4.66-4.02-8.45-8.96-8.45-3.5 0-6.5 1.94-8.04 4.66A9.12 9.12 0 0 0 19.96 14C15.02 14 11 17.79 11 22.45 11 31.29 26.15 41 28 41c1.96 0 17-9.62 17-18.55Z" fill="#63D1BB"></path></svg><svg fill="none" viewBox="0 0 35 36" id="htmlacademy"><path d="M17.6 1h-.1L4 2.4v24.7l13.5 8 13.4-8V2.4L17.6 1ZM29 13.1 17.5 6.3v-.1h-.1l-.1-.1v.1L5.9 13.1v-9l11.5-1.2L29 4.1v9ZM17.4 7.8l11.5 6.7-4.5 2.6-7.1-4.2v1.4l5.9 3.5-.9.5-5-3v1.4l3.8 2.3-.8.5-3-1.8v1.4l1.9 1.1-1.8 1.1L6 14.6l11.4-6.8ZM5.9 16.1l11.4 6.8v1l-7.9-4.7v1.4l8 4.8v1.1l-8-4.7v1.4l8 4.8 8.1-4.9v-5.2l3.4-2v10l-11.5 6.9L5.9 26v-9.9Z" fill="currentColor"></path></svg><svg fill="none" viewBox="0 0 62 62" id="lamp"><path d="M26.16 37.72c-.3 1-.2 2.19 0 3.58.5 2.59 1.7 5.97 2.4 9.65h5.08c.7-3.58 1.9-6.96 2.5-9.65.3-1.4.3-2.69 0-3.58-.3-.9-.9-1.6-2-2.3h-5.98c-1.2.7-1.8 1.4-2 2.3Zm11.77 19.9H24.17c-1.3 0-2.3 1-2.3 2.19V62h18.36v-2.19c0-1.2-1-2.19-2.3-2.19Zm7.09-55.43H33.34c0-1.2-1-2.19-2.29-2.19-1.3 0-2.3 1-2.3 2.19H17.09L11 27.57c.8-.5 1.6-1 2.6-1 1.39 0 2.19.8 2.89 1.4.7.6 1.2.8 1.4.8.3 0 .8-.3 1.49-.8.7-.5 1.6-1.4 2.9-1.4 1.29 0 2.19.8 2.88 1.4.7.5 1.2.8 1.5.8.1 0 .3-.1.6-.2.2-.1.5-.4.9-.6.5-.4 1.1-1 2-1.2.3-.1.6-.1.89-.1 1.3 0 2.2.8 2.9 1.4.7.5 1.19.8 1.49.8.3 0 .8-.3 1.4-.8.7-.6 1.6-1.4 2.89-1.4 1.4 0 2.2.8 2.9 1.4.29.3.59.5.89.6.2.1.4.2.6.2.3 0 .8-.3 1.4-.9.7-.6 1.59-1.4 2.89-1.4 1 0 1.8.5 2.59 1L45.02 2.19ZM34.44 53.14h-6.88c-.7 0-1.1.5-1.1 1.1 0 .6.5 1.1 1.1 1.1h6.88c.7 0 1.1-.5 1.1-1.1.1-.6-.4-1.1-1.1-1.1Z" fill="#149080"></path><path d="M31.05 28.76c-.1 0-.3.1-.6.2-.2.1-.4.3-.6.4v3.68h2.3v-3.58c-.5-.4-.9-.7-1.1-.7Z" fill="#149080"></path></svg><svg fill="none" viewBox="0 0 62 62" id="lego"><path d="m1 44 27.4 16V36.54L1 20.44v23.55Zm51.3-31.52V15c0 1.81-3.5 3.32-7.7 3.32-4.3 0-7.7-1.5-7.7-3.32v-4.13c.3 1.71 3.6 3.12 7.7 3.12 4.3 0 7.7-1.5 7.7-3.32 0-1.81-3.5-3.32-7.7-3.32h-1l-5-2.92v3.12c0 1.81-3.5 3.32-7.7 3.32-2.7 0-5-.6-6.4-1.5-.2-.2-.4-.41-.7-.61-.4-.4-.6-.8-.6-1.21V4.53l-4.8 2.82h-1.1c-4.3 0-7.7 1.5-7.7 3.32 0 1.81 3.5 3.32 7.7 3.32 4.1 0 7.4-1.4 7.7-3.12V15c0 1.81-3.5 3.32-7.7 3.32-4.3 0-7.7-1.5-7.7-3.32v-2.42l-6 3.53 27.5 16.1 27.4-16-6.2-3.73ZM38.7 22.75c0 1.81-3.5 3.32-7.7 3.32-4.3 0-7.7-1.5-7.7-3.32v-4.13c.3 1.72 3.6 3.13 7.7 3.13s7.4-1.41 7.7-3.13v4.13Zm-5.1 14V60L61 44V20.73l-27.4 16Zm-2.7-30.1c4.3 0 7.7-1.52 7.7-3.33S35.1 0 30.9 0c-4.3 0-7.7 1.51-7.7 3.32 0 1.81 3.4 3.32 7.7 3.32Z" fill="#149080"></path></svg><svg fill="none" id="mark" viewBox="0 0 24 17"><path fill="#000" d="m23.963 1.684-.994-.992L8.766 14.786 1.735 7.775l-.994.991 7.03 7.012.995.991 1.065-.991L23.963 1.684Z"></path></svg><svg fill="none" viewBox="0 0 101 77" id="play-button"><path d="M97.29 18.15s-.9-7.02-3.82-10.13c-3.61-4.01-7.73-4.11-9.54-4.31-13.35-1-33.43-1-33.43-1h-.1s-20.08 0-33.43 1c-1.91.2-5.93.3-9.54 4.31-2.81 3.1-3.82 10.13-3.82 10.13s-.9 8.22-.9 16.44v7.72c0 8.22.9 16.44.9 16.44s.9 7.02 3.82 10.13c3.61 4 8.43 3.9 10.54 4.31 7.63.8 32.53 1 32.53 1s20.08 0 33.43-1c1.91-.2 5.93-.3 9.54-4.31 2.81-3.1 3.82-10.13 3.82-10.13s.9-8.22.9-16.44v-7.72c0-8.22-.9-16.44-.9-16.44Z" fill="#63D1BB"></path><path d="M50.4 77c-1 0-25.1-.3-32.73-1h-.2c-.3-.1-.7-.1-1.1-.2-2.52-.3-7.23-.9-10.85-5.02C2.11 67.18 1.1 59.96 1 59.15c0-.3-1-8.52-1-16.74v-7.72c0-8.32.9-16.44.9-16.74v-.1c.1-.8 1.2-7.92 4.52-11.63A15.48 15.48 0 0 1 16.16 1.1c.2 0 .4 0 .5-.1h.1C30.13 0 50.2 0 50.4 0h.1c.2 0 20.28 0 33.63 1h.1c.2 0 .3 0 .5.1 2.21.2 6.73.7 10.75 5.12 3.41 3.6 4.42 10.82 4.52 11.63 0 .3 1 8.52 1 16.84v7.72c0 8.32-.9 16.44-1 16.74v.1c-.1.8-1.2 8.02-4.52 11.63A15.48 15.48 0 0 1 84.74 76c-.2 0-.4 0-.5.1h-.1c-13.36.9-33.54.9-33.74.9Zm-32.03-6.42c7.53.7 31.33 1 32.13 1 .7 0 20.18 0 33.13-1 .2 0 .4 0 .6-.1 1.81-.2 4.62-.5 7.23-3.3 1.8-2.01 2.91-6.92 3.11-8.63.1-.5.9-8.42.9-16.14v-7.72c0-7.82-.9-15.64-1-16.14-.3-2.4-1.4-6.82-3.1-8.52-2.62-2.91-5.43-3.11-7.24-3.31-.2 0-.4 0-.6-.1-13.15-1-32.93-1-33.13-1h-.1c-.2 0-20.08 0-33.13 1-.2 0-.4 0-.6.1-1.81.2-4.62.5-7.23 3.3-1.81 2.01-2.91 6.92-3.12 8.63-.1.6-.9 8.42-.9 16.14v7.72c0 7.72.9 15.64.9 16.14.3 2.4 1.41 6.82 3.12 8.52 2.3 2.61 5.32 3.01 7.53 3.31.6-.1 1 0 1.5.1Z" fill="#fff"></path><path d="M38.45 20.55v35.8L68.37 38.5 38.45 20.55Z" fill="#fff"></path></svg><svg fill="none" viewBox="0 0 55 55" id="present"><path d="M14.03 44h12.61V30.27H14.03V44Zm28.36-23.3h-7.37c.5-.3 1-.5 1.41-.8 1.62-1.09 2.42-2.57 2.42-3.95 0-1.18-.6-2.17-1.41-2.86A4.72 4.72 0 0 0 34.41 12c-1.2 0-2.42.4-3.33 1.09a10.36 10.36 0 0 0-3.43 4.05c0 .1-.1.2-.1.2-.3-.6-.6-1.2-1-1.78a8.5 8.5 0 0 0-2.53-2.47C23 12.49 21.9 12 20.69 12s-2.32.5-3.23 1.28a4.39 4.39 0 0 0-1.41 3.07c0 .69.2 1.48.6 2.17.6.89 1.41 1.58 2.63 2.17H12.6c-.9 0-1.61.7-1.61 1.58v5.83h15.54v-7.4h1.92v7.4H44v-5.83c0-.89-.7-1.58-1.61-1.58Zm-22.5-2.28c-.61-.4-1.02-.79-1.22-1.09-.2-.4-.3-.69-.3-.98 0-.5.2-1 .7-1.49.4-.4 1.01-.69 1.62-.69.7 0 1.41.2 2.02.7a7.6 7.6 0 0 1 2.62 3.15c.3.7.6 1.39.8 2.08-3.12-.3-5.14-.99-6.25-1.68Zm10.59-1.58a6.84 6.84 0 0 1 1.91-1.88c.71-.5 1.42-.69 2.02-.69.6 0 1.11.2 1.52.5.4.3.6.69.6 1.18 0 .5-.3 1.28-1.51 2.07-1.11.8-3.13 1.68-6.16 2.28.3-1.19.91-2.47 1.62-3.46ZM28.46 44h12.61V30.27H28.46V44Z" fill="#63D1BB"></path></svg><svg fill="none" id="ravel" viewBox="0 0 55 55"><path d="M10.306 24.953a16.043 16.043 0 0 0 0 6.233l4.176-3.166-4.176-3.067ZM34.852 12.586c-4.889-2.177-10.593-2.177-15.583.396l7.639 5.54 7.944-5.936ZM44.528 24.062l-4.889 3.66 4.99 3.66c.51-2.373.51-4.946-.101-7.32ZM19.37 43.057c4.89 2.473 10.899 2.671 15.991.099l-8.25-6.035-7.74 5.936ZM18.046 25.249l-6.314-4.551c-.306.692-.612 1.385-.815 2.078l5.398 3.957 1.731-1.484ZM28.945 35.835l8.453 6.134c.306-.198.611-.396.815-.594.306-.198.611-.495.917-.791l-8.454-6.134-1.731 1.385ZM21.611 22.578l-7.537-5.441c-.51.494-.917 1.088-1.324 1.682l7.028 5.144 1.833-1.385ZM32.51 33.163l8.25 6.035c.509-.494.916-1.088 1.324-1.681l-7.843-5.739-1.732 1.386ZM25.176 19.907l-7.843-5.738c-.203.099-.407.297-.61.396-.408.296-.815.593-1.121.989l7.843 5.639 1.731-1.286ZM36.074 30.394l7.13 5.144c.306-.692.611-1.286.917-1.979l-6.213-4.55-1.834 1.385ZM36.89 13.674 10.916 33.362c.203.692.509 1.385.815 2.077l26.99-20.479c-.509-.494-1.12-.89-1.833-1.286ZM41.269 17.532c-.306-.395-.611-.791-.917-1.088l-27.5 20.776c.204.494.51.89.815 1.187.101.198.305.396.407.495l27.704-20.776c-.204-.198-.306-.396-.51-.594ZM42.898 19.907 15.704 40.484c.509.495 1.12.99 1.731 1.386l26.482-19.985c-.306-.692-.611-1.385-1.019-1.978Z" fill="#63D1BB"></path></svg><svg fill="none" viewBox="0 0 55 55" id="rocket"><path d="M40.95 21.75c-3.64-1-7.89-1.69-12.54-1.69-2.93 0-5.56.2-7.79.6L13.75 16H.1l5.87 6.15h8.49c-4.65 1.58-6.88 3.47-6.88 3.47v3.76s2.33 1.89 6.98 3.47h-8.7L0 39h13.65l6.87-4.66a49.05 49.05 0 0 0 20.32-1.09 10.14 10.14 0 0 1-1.92-5.85c.1-1.98.91-3.87 2.03-5.65Zm3.54.99c-1.32 1.59-2.03 3.17-2.03 4.76 0 1.59.71 3.17 2.03 4.76C50.96 30.08 55 27.5 55 27.5s-4.04-2.58-10.51-4.76Z" fill="#63D1BB"></path></svg><svg fill="none" viewBox="0 0 55 55" id="scandinavian-style"><path d="M47.07 14H7.93A3.84 3.84 0 0 0 4 17.86v19.28A3.84 3.84 0 0 0 7.93 41h39.14A3.84 3.84 0 0 0 51 37.14V17.86A3.97 3.97 0 0 0 47.07 14ZM7.03 38.73V16.77h40.54v21.96H7.03Z" fill="#63D1BB"></path><path d="M10.96 34.87h32.68V20.63H10.96v14.24ZM27.5 22.5a5.33 5.33 0 0 1 5.35 5.24 5.33 5.33 0 0 1-5.35 5.24 5.33 5.33 0 0 1-5.35-5.24 5.27 5.27 0 0 1 5.35-5.24Z" fill="#63D1BB"></path></svg><svg fill="none" viewBox="0 0 21 21" id="search"><path d="m19.7 18.06-3.48-3.48a7.63 7.63 0 0 0 1.53-4.7c0-4.4-3.48-7.88-7.88-7.88A7.81 7.81 0 0 0 2 9.88c0 4.4 3.48 7.87 7.88 7.87 1.73 0 3.37-.61 4.7-1.53l3.48 3.47c.2.2.4.31.82.31.6 0 1.12-.51 1.12-1.13 0-.2-.1-.5-.3-.81ZM4.24 9.88a5.67 5.67 0 0 1 5.63-5.63 5.67 5.67 0 0 1 5.62 5.63 5.67 5.67 0 0 1-5.63 5.62 5.67 5.67 0 0 1-5.62-5.63Z" fill="currentColor"></path></svg><svg fill="none" viewBox="0 0 28 23" id="telegram"><path fill-rule="evenodd" clip-rule="evenodd" d="M23.46 3.65c.18.15.27.38.23.61l-2.63 15.76a.66.66 0 0 1-1.01.44l-7.88-5.25a.66.66 0 0 1-.15-.96L14.63 11l-4.36 2.9a.66.66 0 0 1-.65.05L4.36 11.3a.66.66 0 0 1 .08-1.2l18.38-6.57a.66.66 0 0 1 .64.11ZM6.33 10.82l3.53 1.77 7.56-5.04a.66.66 0 0 1 .88.96l-4.8 6 6.43 4.3 2.28-13.66-15.88 5.67Z" fill="currentColor"></path></svg><svg fill="none" viewBox="0 0 32 32" id="telephone"><path d="M20.44 28h-1.1a17.63 17.63 0 0 1-11.2-5.73A18.8 18.8 0 0 1 3 10.72V9.33c.1-.89.5-1.48 1.1-2.07.61-.7 1.62-1.48 2.53-1.58.7 0 1.81.5 2.22 1.09.4.49.6 1.58.8 2.37.2.88.6 1.97.5 2.76-.2 1.19-1.8 1.68-2.21 2.57a16.4 16.4 0 0 0 7.56 8.2c.8-.5 1.61-1.88 2.82-1.88.4 0 1.01.2 1.41.3.5.1.91.3 1.31.49.71.3 2.02.6 2.42 1.19.4.59.7 1.58.6 2.17-.3 1.28-2.41 2.66-3.62 3.06ZM15.6 5.48a10.8 10.8 0 0 1 10.9 10.67H28C28 9.43 22.46 4 15.6 4v1.48Z" fill="currentColor"></path><path d="M15.6 13.19v1.58c.8 0 1.41.59 1.41 1.38h1.61a3 3 0 0 0-3.02-2.96Zm0-3.07a6.11 6.11 0 0 1 6.15 6.03h1.61c0-4.15-3.42-7.5-7.66-7.5v1.47h-.1Z" fill="currentColor"></path></svg><svg fill="none" viewBox="0 0 28 23" id="vkontakte"><path d="M1 5.84c0-.86.52-1.32 1.55-1.38l3.97.02c.26 0 .44.13.53.38.4 1.26.86 2.34 1.37 3.25.5.92 1.17 1.97 1.99 3.16.07.15.18.23.34.23.13 0 .22-.06.3-.18l.07-.28.03-4.35c0-.3-.07-.5-.23-.6-.15-.1-.43-.18-.83-.23-.32-.05-.48-.23-.48-.55 0-.07 0-.12.02-.15.38-1.09 1.44-1.63 3.2-1.63l1.5-.03c.67 0 1.23.16 1.67.48.44.32.67.82.67 1.5v5.72c.12.08.24.12.34.12.27 0 .5-.15.7-.45 1.95-2.58 3-4.31 3.17-5.18 0-.02.01-.06.05-.13.12-.25.33-.47.61-.65.29-.19.53-.31.75-.38a.55.55 0 0 1 .24-.05h4.13l.26.03c.36 0 .63.16.83.47.07.1.12.21.15.33a2.4 2.4 0 0 1 .06.55v.18a6.11 6.11 0 0 1-.94 2.2c-.5.78-1.15 1.62-1.93 2.53-.79.9-1.27 1.5-1.47 1.78-.16.2-.24.39-.24.56 0 .13.07.28.21.45l3.9 4.63c.2.26.31.56.31.88 0 .38-.16.7-.48.95-.32.25-.7.4-1.14.43l-.46.02h-4.04c-.02 0-.06 0-.11.02a.86.86 0 0 1-.1.01c-.4 0-.76-.16-1.1-.48-.12-.13-.96-1.12-2.5-2.97a1.39 1.39 0 0 0-.38-.32 38.47 38.47 0 0 0-.53 2.24l-.08.42a1.4 1.4 0 0 1-1.12 1.06l-.37.02h-2.61c-1.48 0-2.95-.63-4.41-1.9a19.3 19.3 0 0 1-3.96-4.95 47.51 47.51 0 0 1-3.28-7.05A1.92 1.92 0 0 1 1 5.84Zm16.01 6.51c-.37 0-.7-.1-1.01-.29a.9.9 0 0 1-.45-.79V5.5c0-.34-.1-.58-.27-.72-.18-.14-.49-.21-.93-.21l-1.52.05c-.76 0-1.34.12-1.73.37.78.36 1.17.93 1.17 1.71v4.43a1.5 1.5 0 0 1-.53 1.04c-.32.28-.68.42-1.07.42-.53 0-.94-.24-1.22-.73a26.16 26.16 0 0 1-3.1-5.63l-.23-.66-3.55-.02c-.23 0-.36.01-.38.03-.03.03-.04.1-.04.22 0 .15.01.3.05.48l.56 1.4c1.49 3.64 3.11 6.51 4.86 8.6 1.75 2.1 3.47 3.15 5.16 3.15h2.66c.1 0 .19-.03.24-.09.05-.06.1-.17.13-.34l.06-.25.5-2.21c.15-.3.27-.5.38-.6.2-.2.42-.28.69-.28.43 0 .86.24 1.3.73l2.27 2.71c.14.22.3.33.45.33h4.4c.53 0 .8-.13.8-.38a.47.47 0 0 0-.08-.25l-3.87-4.55c-.3-.35-.45-.73-.45-1.13 0-.4.14-.8.43-1.16.23-.34.68-.9 1.34-1.67.67-.78 1.25-1.51 1.75-2.19.5-.68.82-1.3.98-1.85l.08-.33a.37.37 0 0 1-.02-.16c0-.07-.01-.14-.03-.19h-4.18c-.27.1-.48.25-.64.45l-.16.48c-.45 1.16-1.6 2.94-3.5 5.36-.36.33-.8.5-1.3.5Z" fill="currentColor"></path></svg><svg fill="none" viewBox="0 0 28 23" id="youtube"><path d="m17.85 11.3-5.24-3.5a.65.65 0 0 0-1.01.55v6.98a.65.65 0 0 0 1.01.54l5.24-3.49a.65.65 0 0 0 0-1.09Zm-4.94 2.8V9.58l3.4 2.27-3.4 2.27Zm12.48-8.56a2.4 2.4 0 0 0-1.45-1.63C20.22 2.48 14.25 2.5 14 2.5s-6.22-.02-9.94 1.4a2.4 2.4 0 0 0-1.45 1.64 25.32 25.32 0 0 0-.61 6.3c0 3.26.33 5.22.61 6.3a2.4 2.4 0 0 0 1.45 1.63c3.72 1.43 9.69 1.4 9.94 1.4h.08c.75 0 6.31-.04 9.86-1.4a2.4 2.4 0 0 0 1.45-1.64c.28-1.07.61-3.03.61-6.3 0-3.25-.33-5.22-.61-6.29Zm-1.27 12.27a1.1 1.1 0 0 1-.65.74c-3.5 1.34-9.4 1.32-9.47 1.32-.07 0-5.98.02-9.47-1.32a1.09 1.09 0 0 1-.65-.74c-.27-1-.57-2.85-.57-5.97 0-3.12.3-4.97.57-5.97a1.1 1.1 0 0 1 .65-.74C8.03 3.79 13.93 3.8 14 3.8c.07 0 5.98-.02 9.47 1.32a1.1 1.1 0 0 1 .65.74c.27 1 .57 2.85.57 5.97 0 3.12-.3 4.96-.57 5.97Z" fill="currentColor"></path></svg><svg fill="none" viewBox="0 0 1150 34" id="zigzag-fill-desktop-inner"><path d="M1121.3 0c-14.4 0-14.4 14-28.7 14-14.3 0-14.4-14-28.7-14-14.3 0-14.4 14-28.7 14-14.4 0-14.4-14-28.8-14S992 14 977.7 14C963.3 14 963.3 0 949 0c-14.4 0-14.4 14-28.7 14-14.3 0-14.7-14-29-14-14.4 0-14.4 14-28.7 14-14.3 0-14.5-14-28.8-14-14.4 0-14.4 14-28.7 14-14.4 0-14.4-14-28.8-14s-14.4 14-28.7 14c-14.4 0-14.4-14-28.7-14-14.3 0-14.5 14-28.9 14-14.4 0-14.4-14-28.7-14-14.4 0-14.4 14-28.7 14-14.4 0-14.4-14-28.8-14s-14.4 14-28.7 14c-14.4 0-14.4-14-28.7-14C532 0 532 14 517.7 14 503.3 14 503.3 0 489 0c-14.4 0-14.4 14-28.8 14S445.8 0 431.4 0 417 14 402.6 14 388.2 0 373.8 0 359.4 14 345 14 330.6 0 316.2 0s-14.4 14-28.8 14S273 0 258.6 0s-14.4 14-28.7 14c-14.4 0-14.4-14-28.8-14s-14.4 14-28.8 14-14.4-14-28.8-14-14.4 14-28.8 14S100.3 0 85.9 0c-14 0-14 14-28.4 14C43.1 14 43.1 0 28.8 0 14.5 0 14.4 14 0 14v20h1150V14c-14.4 0-14.4-14-28.7-14Z" fill="#fff"></path></svg><svg fill="none" id="zigzag-fill-desktop" viewBox="0 0 1150 34"><path d="M1168.8 0c-15.65 0-15.65 14-31.19 14-15.54 0-15.65-14-31.2-14-15.54 0-15.65 14-31.19 14-15.65 0-15.65-14-31.31-14-15.65 0-15.65 14-31.19 14-15.655 0-15.655-14-31.198-14-15.652 0-15.652 14-31.196 14-15.543 0-15.978-14-31.522-14-15.652 0-15.652 14-31.195 14-15.544 0-15.761-14-31.305-14-15.652 0-15.652 14-31.195 14-15.653 0-15.653-14-31.305-14s-15.652 14-31.195 14c-15.653 0-15.652-14-31.196-14C715.87 0 715.652 14 700 14c-15.652 0-15.652-14-31.196-14-15.652 0-15.652 14-31.195 14-15.653 0-15.653-14-31.305-14s-15.652 14-31.195 14c-15.653 0-15.652-14-31.196-14-15.652 0-15.652 14-31.196 14-15.652 0-15.652-14-31.195-14-15.652 0-15.652 14-31.305 14-15.652 0-15.652-14-31.304-14s-15.652 14-31.304 14-15.652-14-31.305-14C340.652 0 340.652 14 325 14S309.348 0 293.696 0c-15.653 0-15.653 14-31.305 14S246.739 0 231.087 0s-15.652 14-31.196 14c-15.652 0-15.652-14-31.304-14s-15.652 14-31.304 14C121.63 14 121.63 0 105.978 0S90.326 14 74.674 14 59.022 0 43.37 0C28.152 0 28.152 14 12.5 14-3.152 14-3.152 0-18.696 0-34.239 0-34.348 14-50 14v20h1250V14c-15.65 0-15.65-14-31.2-14Z" fill="#fff"></path></svg><svg fill="none" id="zigzag-fill-tablet" viewBox="0 0 768 24"><path d="M749.783 0c-9.641 0-9.641 9.882-19.216 9.882-9.575 0-9.642-9.882-19.217-9.882-9.574 0-9.641 9.882-19.216 9.882-9.642 0-9.642-9.882-19.284-9.882-9.641 0-9.641 9.882-19.216 9.882-9.642 0-9.642-9.882-19.217-9.882-9.641 0-9.641 9.882-19.216 9.882-9.575 0-9.843-9.882-19.418-9.882-9.641 0-9.641 9.882-19.216 9.882-9.575 0-9.709-9.882-19.284-9.882-9.641 0-9.641 9.882-19.216 9.882-9.642 0-9.642-9.882-19.284-9.882-9.641 0-9.641 9.882-19.216 9.882-9.642 0-9.642-9.882-19.217-9.882-9.574 0-9.708 9.882-19.35 9.882-9.642 0-9.642-9.882-19.217-9.882-9.641 0-9.641 9.882-19.216 9.882-9.642 0-9.642-9.882-19.284-9.882-9.641 0-9.641 9.882-19.216 9.882-9.642 0-9.642-9.882-19.217-9.882-9.641 0-9.641 9.882-19.216 9.882-9.642 0-9.642-9.882-19.217-9.882-9.641 0-9.641 9.882-19.283 9.882-9.642 0-9.642-9.882-19.284-9.882-9.641 0-9.641 9.882-19.283 9.882-9.642 0-9.642-9.882-19.284-9.882-9.641 0-9.641 9.882-19.283 9.882-9.642 0-9.642-9.882-19.283-9.882-9.642 0-9.642 9.882-19.284 9.882S181.791 0 172.15 0c-9.642 0-9.642 9.882-19.217 9.882-9.642 0-9.642-9.882-19.283-9.882-9.642 0-9.642 9.882-19.284 9.882S104.724 0 95.083 0C85.44 0 85.44 9.882 75.799 9.882S66.157 0 56.516 0C47.142 0 47.142 9.882 37.5 9.882 27.858 9.882 27.858 0 18.284 0 8.709 0 8.642 9.882-1 9.882V24h770V9.882c-9.642 0-9.642-9.882-19.217-9.882Z" fill="#fff"></path></svg></svg>